# xmcd CD database file
#
# Track frame offsets:
#	150
#	18390
#	35632
#	62130
#	100057
#
# Disc length: 2946 seconds
#
# Revision: 10
# Processed by: cddbd v1.5.2PL0 Copyright (c) Steve Scherf et al.
# Submitted via: CDex 1.51
#
DISCID=3a0b8005
DTITLE=Led Zeppelin - The Song Remains The Same (1/2)
DYEAR=1976
DGENRE=Rock
TTITLE0=Rock And Roll
TTITLE1=Celebration Day
TTITLE2=The Song Remains The Same
TTITLE3=Rain Song
TTITLE4=Dazed And Confused
EXTD=The soundtrack from the film\nThe Song Remains The Same YEAR: 1976
EXTT0=
EXTT1=
EXTT2=
EXTT3=
EXTT4=
PLAYORDER=
